# xmcd CD database file
#
# Track frame offsets:
#	150
#	19046
#	41888
#	57356
#	81507
#	100938
#	113920
#	136138
#	163559
#	183727
#	205777
#	220810
#
# Disc length: 3255 seconds
#
# Revision: 0
# Processed by: cddbd v1.5.2PL0 Copyright (c) Steve Scherf et al.
# Submitted via: CDex 1.51
#
DISCID=aa0cb50c
DTITLE=Francis et ses Peintres - La Paloma
DYEAR=2008
DGENRE=Jazz
TTITLE0=La Paloma
TTITLE1=Bobo Land
TTITLE2=Capri c'est fini
TTITLE3=04.05.06
TTITLE4=J touch, J break, J pay
TTITLE5=L'idole des jeunes
TTITLE6=Oliviet Twist
TTITLE7=Dimanche Soir
TTITLE8=Cu in Taïwan
TTITLE9=Blaireau.com
TTITLE10=Le douanier Rousseau
TTITLE11=To be Ornette
EXTD=YEAR: 2008
EXTT0=
EXTT1=
EXTT2=
EXTT3=
EXTT4=
EXTT5=
EXTT6=
EXTT7=
EXTT8=
EXTT9=
EXTT10=
EXTT11=
PLAYORDER=
